<svg width="43" height="43" viewBox="0 0 43 43" fill="none" xmlns="http://www.w3.org/2000/svg">
<g clip-path="url(#clip0_829_79)">
<path d="M21.5 0.671875C10.0153 0.671875 0.671875 10.0153 0.671875 21.5C0.671875 32.9847 10.0153 42.3281 21.5 42.3281C32.9847 42.3281 42.3281 32.9847 42.3281 21.5C42.3281 10.0153 32.9847 0.671875 21.5 0.671875ZM35.2709 10.2768C37.7487 13.3041 39.2492 17.1599 39.2883 21.359C38.7018 21.2349 32.82 20.0419 26.9004 20.7864C26.4174 19.6072 25.9614 18.5698 25.3369 17.2915C31.9147 14.6059 34.8958 10.7842 35.2709 10.2768ZM33.2932 8.21955C32.9732 8.67533 30.2952 12.2748 23.9691 14.646C21.0539 9.28976 17.8227 4.88965 17.331 4.23122C22.9728 2.87126 28.918 4.33788 33.2932 8.21955ZM13.9365 5.42707C14.4055 6.07031 17.5846 10.4759 20.5323 15.7159C12.2106 17.9258 4.881 17.894 4.08534 17.8835C5.23895 12.3629 8.95928 7.77469 13.9365 5.42707ZM3.70959 21.5271C3.70959 21.3452 3.7132 21.1641 3.71866 20.9835C4.49703 20.9995 13.1182 21.1106 22.0026 18.4517C22.5118 19.4484 22.9984 20.4602 23.4449 21.4709C17.0118 23.2828 11.1669 28.4858 8.28313 33.4223C5.44168 30.2684 3.70959 26.0965 3.70959 21.5271ZM10.5801 35.562C12.4384 31.7631 17.4818 26.8594 24.6541 24.4126C27.1518 30.9031 28.1847 36.3428 28.4493 37.9037C22.7289 40.3403 15.8504 39.6718 10.5801 35.562ZM31.4401 36.275C31.2578 35.1927 30.3109 29.9848 27.984 23.5905C33.5589 22.6981 38.4569 24.1589 39.0655 24.351C38.2725 29.3011 35.4312 33.5762 31.4401 36.275Z" fill="white"/>
</g>
<defs>
<clipPath id="clip0_829_79">
<rect width="43" height="43" fill="white"/>
</clipPath>
</defs>
</svg>
